# xmcd
#
# Track frame offsets: 
#        150
#        21614
#        34610
#        51285
#        69178
#        91521
#        105918
#        129314
#        145422
#        166008
#        189863
#        207605
#        232806
#
# Disc length: 3351 seconds
#
# Revision: 2
# Processed by: cddbd v1.5.2PL0 Copyright (c) Steve Scherf et al.
# Submitted via: ExactAudioCopyFreeDBPlugin 1.0
#
DISCID=9f0d150d
DTITLE=Dr. John and The Lower 911 - City That Care Forgot
DYEAR=2008
DGENRE=Blues
TTITLE0=Keep on Goin'
TTITLE1=Time for a Change (with Eric Clapton)
TTITLE2=Promises, Promises (with Willie Nelson)
TTITLE3=You Might Be Surprised
TTITLE4=Dream Warrior
TTITLE5=Black Gold
TTITLE6=We Gettin' There (with Terence Blanchard)
TTITLE7=Stripped Away (with Eric Clapton)
TTITLE8=Say Whut?
TTITLE9=My People Need a Second Line (with James '12' Andrews and Troy '
TTITLE9=Trombone Shorty' Andrews)
TTITLE10=Land Grab (with Terence Blanchard)
TTITLE11=City That Care Forgot (with Eric Clapton and Ani DiFranco)
TTITLE12=Save Our Wetlands (with Terrance Simien)
EXTD=YEAR: 2008
EXTT0=
EXTT1=
EXTT2=
EXTT3=
EXTT4=
EXTT5=
EXTT6=
EXTT7=
EXTT8=
EXTT9=
EXTT10=
EXTT11=
EXTT12=
PLAYORDER=
